# xmcd
#
# Track frame offsets: 
#        150
#        25425
#        46267
#        68422
#        89695
#        112015
#        127075
#        156125
#        201097
#
# Disc length: 3006 seconds
#
# Revision: 4
# Processed by: cddbd v1.5.2PL0 Copyright (c) Steve Scherf et al.
# Submitted via: ExactAudioCopyFreeDBPlugin 1.0
#
DISCID=7b0bbc09
DTITLE=King, B. B. - Completely well
DYEAR=1969
DGENRE=Blues
TTITLE0=So excited
TTITLE1=No good
TTITLE2=You're losin' me
TTITLE3=What happened
TTITLE4=Confessin' the blues
TTITLE5=Key to my kingdom
TTITLE6=Cryin' won't help you now
TTITLE7=You're mean
TTITLE8=The thrill is gone
EXTD=
EXTT0=
EXTT1=
EXTT2=
EXTT3=
EXTT4=
EXTT5=
EXTT6=
EXTT7=
EXTT8=
PLAYORDER=
